,
Brought to you by  http://www.scenetime.com/signup.php
 
 Hottest scene tracker on the net !!!   
 
No fake torrents from scenebalance 
shame on those who comment fake before downloading my torrents

    seed back for speed


 



...................................NFO:.................................................[pre]               
*******************************************************************************
                  Tracker.2010.480.BRRip.XviD.AC3-PRESTiGE
*******************************************************************************

-------------------------------------------------------------------------------
                              General Information
-------------------------------------------------------------------------------

TiTLE............: Tracker.2010.480.BRRip.XviD.AC3-PRESTiGE

iMDB.............: http://www.imdb.com/title/tt1414378/

GENRE............: Action | Adventure | Drama

LANGUAGE.........: English

SOURCE...........: 7sins-tracker-2010-1080p-x264 MANY THANKS!!

FiLE SiZE........: 1.96GB

SUBS.............: N/A

DURATiON.........: 1h 28mn

ENCODED by.......: akosipalos



ViDEO iNFO:

ID                               : 0
Format                           : MPEG-4 Visual
Format profile                   : Advanced Simple@L5
Format settings, BVOP            : Yes
Format settings, QPel            : No
Format settings, GMC             : No warppoints
Format settings, Matrix          : Default (H.263)
Codec ID                         : XVID
Codec ID/Hint                    : XviD
Duration                         : 1h 28mn
Bit rate                         : 2 720 Kbps
Width                            : 720 pixels
Height                           : 304 pixels
Display aspect ratio             : 2.35:1
Frame rate                       : 25.000 fps
Color space                      : YUV
Chroma subsampling               : 4:2:0
Bit depth                        : 8 bits
Scan type                        : Progressive
Bits/(Pixel*Frame)               : 0.497
Stream size                      : 1.68 GiB (86%)
Writing library                  : XviD 1.2.1 (UTC 2008-12-04)



AUDiO iNFO:

ID                               : 1
Format                           : AC-3
Format/Info                      : Audio Coding 3
Mode extension                   : CM (complete main)
Codec ID                         : 2000
Duration                         : 1h 28mn
Bit rate mode                    : Constant
Bit rate                         : 448 Kbps
Channel(s)                       : 6 channels
Channel positions                : Front: L C R, Side: L R, LFE
Sampling rate                    : 48.0 KHz
Bit depth                        : 16 bits
Stream size                      : 283 MiB (14%)
Alignment                        : Aligned on interleaves
Interleave, duration             : 64 ms (1.60 video frames)
Interleave, preload duration     : 192 ms
Title                            : T2_Audio - 5.1 channels



-------------------------------------------------------------------------------
                                 PLOT:
-------------------------------------------------------------------------------


An ex-Boer war guerrilla in New Zealand is sent out to bring back a Maori accused of killing a British soldier.


-------------------------------------------------------------------------------
                                 CAST:
-------------------------------------------------------------------------------


Ray Winstone ... Arjan van Diemen
Temuera Morrison ... Kereama
Gareth Reeves ... Maj. Pritchard Carlysle
Mark Mitchinson ... Saunders
Daniel Musgrove ... Pvt. Rennick
Andy Anderson ... Bryce
Mick Rose ... Sgt. Leyborne
Jodie Hillock ... Lucy
Tim McLachlan ... Levin


-------------------------------------------------------------------------------
                               SCREENS:
-------------------------------------------------------------------------------


[img]http://i824.photobucket.com/albums/zz161/akosipalos/tracker1.png[/img]

[img]http://i824.photobucket.com/albums/zz161/akosipalos/tracker2.png[/img]

[img]http://i824.photobucket.com/albums/zz161/akosipalos/tracker3.png[/img]

[img]http://i824.photobucket.com/albums/zz161/akosipalos/tracker4.png[/img]

[img]http://i824.photobucket.com/albums/zz161/akosipalos/tracker5.png[/img]


-------------------------------------------------------------------------------
                             Release Notes
-------------------------------------------------------------------------------


PRESTiGE - IS LOOKING FOR?: CAMMER'S, AUDIO SUPPLIERS, SYNCER'S, RETAIL
SUPPLIER'S, SILVER'S, SCREENER'S, LINE CAPPER'S

ENCODER'S - ANYTHING AT ALL EMAIL US AT..... prestige@hushmail.me

** ** ** ** ** ** ** ** **

PRESTiGE is the level of respect at which one is regarded by others....RIzE Above Or Sink Below...


-------------------------------------------------------------------------------
                                 GREETZ:
-------------------------------------------------------------------------------


twisted ,bigguy, CTFX, HiTM4N, smelise.paranoid53, mtyy, fifer, akosipalos, DiLLoN, imagine,"the squad" , floridajoe and To All Encoders Past And Present...


-------------------------------------------------------------------------------
Generated with Cool NFO Creator - http://fly.to/coolbeans
-------------------------------------------------------------------------------
[/pre]